<svg xmlns="http://www.w3.org/2000/svg" xmlns:xlink="http://www.w3.org/1999/xlink" width="71" zoomAndPan="magnify" viewBox="0 0 53.25 124.499998" height="166" preserveAspectRatio="xMidYMid meet" version="1.0"><defs><clipPath id="993e0ffb7b"><path d="M 0 0.617188 L 52.511719 0.617188 L 52.511719 71 L 0 71 Z M 0 0.617188 " clip-rule="nonzero"/></clipPath><clipPath id="cba605b7c9"><path d="M 0 52 L 52.511719 52 L 52.511719 122.648438 L 0 122.648438 Z M 0 52 " clip-rule="nonzero"/></clipPath><clipPath id="a170970ac0"><path d="M 0 35 L 52.511719 35 L 52.511719 88 L 0 88 Z M 0 35 " clip-rule="nonzero"/></clipPath><clipPath id="4d08903c0e"><path d="M 0 0.617188 L 52.511719 0.617188 L 52.511719 71 L 0 71 Z M 0 0.617188 " clip-rule="nonzero"/></clipPath><clipPath id="8244ff1400"><path d="M 0 52 L 52.511719 52 L 52.511719 122.648438 L 0 122.648438 Z M 0 52 " clip-rule="nonzero"/></clipPath><clipPath id="05ccab15bd"><path d="M 0 35 L 52.511719 35 L 52.511719 88 L 0 88 Z M 0 35 " clip-rule="nonzero"/></clipPath></defs><g clip-path="url(#993e0ffb7b)"><path fill="#f13864" d="M 52.351562 0.621094 L 52.351562 35.511719 L 0.0117188 70.402344 L 0.0117188 35.511719 L 52.351562 0.621094 " fill-opacity="1" fill-rule="nonzero"/></g><g clip-path="url(#cba605b7c9)"><path fill="#fba30c" d="M 52.351562 52.957031 L 52.351562 87.847656 L 0.0117188 122.742188 L 0.0117188 87.847656 L 52.351562 52.957031 " fill-opacity="1" fill-rule="nonzero"/></g><g clip-path="url(#a170970ac0)"><path fill="#55d876" d="M 0.0117188 70.402344 L 52.351562 87.847656 L 52.351562 52.957031 L 0.0117188 35.511719 " fill-opacity="1" fill-rule="nonzero"/></g><g clip-path="url(#4d08903c0e)"><path fill="#f13864" d="M 52.351562 0.621094 L 52.351562 35.511719 L 0.0117188 70.402344 L 0.0117188 35.511719 L 52.351562 0.621094 " fill-opacity="1" fill-rule="nonzero"/></g><g clip-path="url(#8244ff1400)"><path fill="#fba30c" d="M 52.351562 52.957031 L 52.351562 87.847656 L 0.0117188 122.742188 L 0.0117188 87.847656 L 52.351562 52.957031 " fill-opacity="1" fill-rule="nonzero"/></g><g clip-path="url(#05ccab15bd)"><path fill="#55d876" d="M 0.0117188 70.402344 L 52.351562 87.847656 L 52.351562 52.957031 L 0.0117188 35.511719 " fill-opacity="1" fill-rule="nonzero"/></g></svg>